solid SP_Base_2016
facet normal 0.0 0.0 -1.0
  outer loop
    vertex 120.0 80.0 0.0
    vertex 0.0 0.0 0.0
    vertex 0.0 80.0 0.0
  endloop
endfacet
facet normal 0.0 0.0 -1.0
  outer loop
    vertex 0.0 0.0 0.0
    vertex 120.0 80.0 0.0
    vertex 120.0 0.0 0.0
  endloop
endfacet
facet normal 7.100635027998323e-17 2.467470672229418e-15 1.0
  outer loop
    vertex 6.500000000000001 12.50000000000001 10.999999999999996
    vertex 76.0 14.499999999999996 10.999999999999988
    vertex 6.499999999999999 14.499999999999996 10.99999999999999
  endloop
endfacet
facet normal 7.100635027998323e-17 2.467470672229418e-15 1.0
  outer loop
    vertex 76.0 14.499999999999996 10.999999999999988
    vertex 6.500000000000001 12.50000000000001 10.999999999999996
    vertex 76.0 12.5 10.99999999999999
  endloop
endfacet
facet normal 1.0 0.0 0.0
  outer loop
    vertex 1.9999999999999998 12.5 1.9999999999999998
    vertex 1.9999999999999998 1.9999999999999998 11.000000000000016
    vertex 1.9999999999999998 1.9999999999999998 1.9999999999999998
  endloop
endfacet
facet normal 1.0 0.0 0.0
  outer loop
    vertex 1.9999999999999998 1.9999999999999998 11.000000000000016
    vertex 1.9999999999999998 12.5 1.9999999999999998
    vertex 1.9999999999999998 12.5 11.0
  endloop
endfacet
facet normal 1.0 2.3499720687899137e-16 1.5442179209963109e-32
  outer loop
    vertex 1.9999999999999998 78.0 1.9999999999999998
    vertex 2.000000000000002 67.5 11.000000000000002
    vertex 2.000000000000002 67.5 2.000000000000001
  endloop
endfacet
facet normal 1.0 2.3499720687899137e-16 1.5442179209963109e-32
  outer loop
    vertex 2.000000000000002 67.5 11.000000000000002
    vertex 1.9999999999999998 78.0 1.9999999999999998
    vertex 1.9999999999999998 78.0 11.000000000000016
  endloop
endfacet
facet normal 0.0 -1.0 0.0
  outer loop
    vertex 118.00000000000001 78.0 11.000000000000016
    vertex 1.9999999999999998 78.0 1.9999999999999998
    vertex 118.00000000000001 78.0 1.9999999999999998
  endloop
endfacet
facet normal 0.0 -1.0 0.0
  outer loop
    vertex 1.9999999999999998 78.0 1.9999999999999998
    vertex 118.00000000000001 78.0 11.000000000000016
    vertex 1.9999999999999998 78.0 11.000000000000016
  endloop
endfacet
facet normal -1.0 -0.0 -0.0
  outer loop
    vertex 118.00000000000001 78.0 11.000000000000016
    vertex 118.00000000000001 1.9999999999999998 1.9999999999999998
    vertex 118.00000000000001 1.9999999999999998 11.000000000000016
  endloop
endfacet
facet normal -1.0 -0.0 -0.0
  outer loop
    vertex 118.00000000000001 1.9999999999999998 1.9999999999999998
    vertex 118.00000000000001 78.0 11.000000000000016
    vertex 118.00000000000001 78.0 1.9999999999999998
  endloop
endfacet
facet normal 0.0 1.0 0.0
  outer loop
    vertex 1.9999999999999998 1.9999999999999998 11.000000000000016
    vertex 118.00000000000001 1.9999999999999998 1.9999999999999998
    vertex 1.9999999999999998 1.9999999999999998 1.9999999999999998
  endloop
endfacet
facet normal 0.0 1.0 0.0
  outer loop
    vertex 118.00000000000001 1.9999999999999998 1.9999999999999998
    vertex 1.9999999999999998 1.9999999999999998 11.000000000000016
    vertex 118.00000000000001 1.9999999999999998 11.000000000000016
  endloop
endfacet
facet normal 1.0 2.860507540537256e-32 2.028752865142371e-17
  outer loop
    vertex 76.0 14.499999999999996 8.999999999999998
    vertex 76.0 12.5 10.99999999999999
    vertex 76.0 12.5 9.0
  endloop
endfacet
facet normal 1.0 2.860507540537256e-32 2.028752865142371e-17
  outer loop
    vertex 76.0 12.5 10.99999999999999
    vertex 76.0 14.499999999999996 8.999999999999998
    vertex 76.0 14.499999999999996 10.999999999999988
  endloop
endfacet
facet normal -9.399888275159659e-16 1.0 7.049916206369742e-16
  outer loop
    vertex 4.999999999999999 14.499999999999996 9.0
    vertex 6.499999999999999 14.499999999999998 7.0
    vertex 4.999999999999999 14.499999999999996 7.0
  endloop
endfacet
facet normal -9.399888275159659e-16 1.0 7.049916206369742e-16
  outer loop
    vertex 6.499999999999999 14.499999999999998 7.0
    vertex 4.999999999999999 14.499999999999996 9.0
    vertex 6.499999999999999 14.499999999999996 9.0
  endloop
endfacet
facet normal 3.603271991556267e-18 -4.918130280953016e-18 1.0
  outer loop
    vertex 118.00000000000001 1.9999999999999998 1.9999999999999998
    vertex 1.9999999999999998 12.5 1.9999999999999998
    vertex 1.9999999999999998 1.9999999999999998 1.9999999999999998
  endloop
endfacet
facet normal 3.603271991556267e-18 -4.918130280953016e-18 1.0
  outer loop
    vertex 1.9999999999999998 12.5 1.9999999999999998
    vertex 118.00000000000001 1.9999999999999998 1.9999999999999998
    vertex 6.499999999999999 12.5 1.9999999999999998
  endloop
endfacet
facet normal 3.603271991556267e-18 -4.918130280953016e-18 1.0
  outer loop
    vertex 6.499999999999999 12.5 1.9999999999999998
    vertex 118.00000000000001 1.9999999999999998 1.9999999999999998
    vertex 76.0 12.5 1.9999999999999998
  endloop
endfacet
facet normal 3.603271991556267e-18 -4.918130280953016e-18 1.0
  outer loop
    vertex 76.0 12.5 1.9999999999999998
    vertex 118.00000000000001 1.9999999999999998 1.9999999999999998
    vertex 80.5 12.5 1.9999999999999998
  endloop
endfacet
facet normal 3.603271991556267e-18 -4.918130280953016e-18 1.0
  outer loop
    vertex 80.5 12.5 1.9999999999999998
    vertex 118.00000000000001 1.9999999999999998 1.9999999999999998
    vertex 80.5 67.5 1.9999999999999998
  endloop
endfacet
facet normal 3.603271991556267e-18 -4.918130280953016e-18 1.0
  outer loop
    vertex 2.000000000000002 67.5 2.000000000000001
    vertex 118.00000000000001 78.0 1.9999999999999998
    vertex 1.9999999999999998 78.0 1.9999999999999998
  endloop
endfacet
facet normal 3.603271991556267e-18 -4.918130280953016e-18 1.0
  outer loop
    vertex 118.00000000000001 78.0 1.9999999999999998
    vertex 2.000000000000002 67.5 2.000000000000001
    vertex 6.500000000000002 67.5 2.000000000000001
  endloop
endfacet
facet normal 3.603271991556267e-18 -4.918130280953016e-18 1.0
  outer loop
    vertex 118.00000000000001 78.0 1.9999999999999998
    vertex 6.500000000000002 67.5 2.000000000000001
    vertex 76.0 67.5 1.9999999999999998
  endloop
endfacet
facet normal 3.603271991556267e-18 -4.918130280953016e-18 1.0
  outer loop
    vertex 118.00000000000001 78.0 1.9999999999999998
    vertex 76.0 67.5 1.9999999999999998
    vertex 80.5 67.5 1.9999999999999998
  endloop
endfacet
facet normal 3.603271991556267e-18 -4.918130280953016e-18 1.0
  outer loop
    vertex 118.00000000000001 78.0 1.9999999999999998
    vertex 80.5 67.5 1.9999999999999998
    vertex 118.00000000000001 1.9999999999999998 1.9999999999999998
  endloop
endfacet
facet normal 1.0 0.0 0.0
  outer loop
    vertex 4.999999999999999 65.5 7.0
    vertex 4.999999999999999 14.499999999999996 9.0
    vertex 4.999999999999999 14.499999999999996 7.0
  endloop
endfacet
facet normal 1.0 0.0 0.0
  outer loop
    vertex 4.999999999999999 14.499999999999996 9.0
    vertex 4.999999999999999 65.5 7.0
    vertex 4.999999999999999 65.5 9.0
  endloop
endfacet
facet normal -1.879977655031935e-15 1.0 0.0
  outer loop
    vertex 76.0 14.499999999999996 8.999999999999998
    vertex 77.5 14.499999999999998 6.999999999999998
    vertex 76.0 14.499999999999996 6.999999999999998
  endloop
endfacet
facet normal -1.879977655031935e-15 1.0 0.0
  outer loop
    vertex 77.5 14.499999999999998 6.999999999999998
    vertex 76.0 14.499999999999996 8.999999999999998
    vertex 77.5 14.499999999999998 8.999999999999998
  endloop
endfacet
facet normal -1.5666480458598313e-16 -2.029163259029091e-16 1.0
  outer loop
    vertex 6.500000000000001 12.50000000000001 10.999999999999996
    vertex 2.000000000000002 67.5 11.000000000000002
    vertex 1.9999999999999998 12.5 11.0
  endloop
endfacet
facet normal -1.5666480458598313e-16 -2.029163259029091e-16 1.0
  outer loop
    vertex 2.000000000000002 67.5 11.000000000000002
    vertex 6.500000000000001 12.50000000000001 10.999999999999996
    vertex 6.499999999999953 67.49999999999999 11.000000000000021
  endloop
endfacet
facet normal -1.5666480458598313e-16 -2.029163259029091e-16 1.0
  outer loop
    vertex 6.499999999999953 67.49999999999999 11.000000000000021
    vertex 6.500000000000001 12.50000000000001 10.999999999999996
    vertex 6.499999999999963 65.5 10.999999999999996
  endloop
endfacet
facet normal -1.5666480458598313e-16 -2.029163259029091e-16 1.0
  outer loop
    vertex 6.499999999999963 65.5 10.999999999999996
    vertex 6.500000000000001 12.50000000000001 10.999999999999996
    vertex 6.499999999999999 14.499999999999996 10.99999999999999
  endloop
endfacet
facet normal 0.0 0.0 1.0
  outer loop
    vertex 2.000000000000002 67.5 11.000000000000002
    vertex 1.9999999999999998 78.0 11.000000000000016
    vertex 1.9999999999999998 12.5 11.0
  endloop
endfacet
facet normal 0.0 0.0 1.0
  outer loop
    vertex 0.0 0.0 11.000000000000016
    vertex 1.9999999999999998 1.9999999999999998 11.000000000000016
    vertex 0.0 80.0 11.000000000000016
  endloop
endfacet
facet normal 0.0 0.0 1.0
  outer loop
    vertex 1.9999999999999998 1.9999999999999998 11.000000000000016
    vertex 0.0 0.0 11.000000000000016
    vertex 120.0 0.0 11.000000000000016
  endloop
endfacet
facet normal 0.0 0.0 1.0
  outer loop
    vertex 1.9999999999999998 1.9999999999999998 11.000000000000016
    vertex 120.0 0.0 11.000000000000016
    vertex 118.00000000000001 1.9999999999999998 11.000000000000016
  endloop
endfacet
facet normal 0.0 0.0 1.0
  outer loop
    vertex 118.00000000000001 1.9999999999999998 11.000000000000016
    vertex 120.0 0.0 11.000000000000016
    vertex 118.00000000000001 78.0 11.000000000000016
  endloop
endfacet
facet normal 0.0 0.0 1.0
  outer loop
    vertex 0.0 80.0 11.000000000000016
    vertex 1.9999999999999998 78.0 11.000000000000016
    vertex 120.0 80.0 11.000000000000016
  endloop
endfacet
facet normal 0.0 0.0 1.0
  outer loop
    vertex 1.9999999999999998 78.0 11.000000000000016
    vertex 0.0 80.0 11.000000000000016
    vertex 1.9999999999999998 1.9999999999999998 11.000000000000016
  endloop
endfacet
facet normal 0.0 0.0 1.0
  outer loop
    vertex 1.9999999999999998 78.0 11.000000000000016
    vertex 1.9999999999999998 1.9999999999999998 11.000000000000016
    vertex 1.9999999999999998 12.5 11.0
  endloop
endfacet
facet normal 0.0 0.0 1.0
  outer loop
    vertex 120.0 80.0 11.000000000000016
    vertex 1.9999999999999998 78.0 11.000000000000016
    vertex 118.00000000000001 78.0 11.000000000000016
  endloop
endfacet
facet normal 0.0 0.0 1.0
  outer loop
    vertex 120.0 80.0 11.000000000000016
    vertex 118.00000000000001 78.0 11.000000000000016
    vertex 120.0 0.0 11.000000000000016
  endloop
endfacet
facet normal 1.2533184366879546e-15 -1.0 6.266592183439771e-16
  outer loop
    vertex 6.500000000000001 12.50000000000001 10.999999999999996
    vertex 1.9999999999999998 12.5 1.9999999999999998
    vertex 6.499999999999999 12.5 1.9999999999999998
  endloop
endfacet
facet normal 1.2533184366879546e-15 -1.0 6.266592183439771e-16
  outer loop
    vertex 1.9999999999999998 12.5 1.9999999999999998
    vertex 6.500000000000001 12.50000000000001 10.999999999999996
    vertex 1.9999999999999998 12.5 11.0
  endloop
endfacet
facet normal 0.0 -1.0 0.0
  outer loop
    vertex 80.5 12.5 9.0
    vertex 76.0 12.5 1.9999999999999998
    vertex 80.5 12.5 1.9999999999999998
  endloop
endfacet
facet normal 0.0 -1.0 0.0
  outer loop
    vertex 76.0 12.5 1.9999999999999998
    vertex 80.5 12.5 9.0
    vertex 76.0 12.5 9.0
  endloop
endfacet
facet normal 1.0 0.0 0.0
  outer loop
    vertex 80.5 67.5 1.9999999999999998
    vertex 80.5 12.5 9.0
    vertex 80.5 12.5 1.9999999999999998
  endloop
endfacet
facet normal 1.0 0.0 0.0
  outer loop
    vertex 80.5 12.5 9.0
    vertex 80.5 67.5 1.9999999999999998
    vertex 80.5 67.5 9.0
  endloop
endfacet
facet normal 9.399888275159659e-16 -1.803335880126553e-17 1.0
  outer loop
    vertex 6.499999999999999 14.499999999999998 7.0
    vertex 4.999999999999999 65.5 7.0
    vertex 4.999999999999999 14.499999999999996 7.0
  endloop
endfacet
facet normal 9.399888275159659e-16 -1.803335880126553e-17 1.0
  outer loop
    vertex 4.999999999999999 65.5 7.0
    vertex 6.499999999999999 14.499999999999998 7.0
    vertex 6.499999999999999 65.5 7.0
  endloop
endfacet
facet normal 9.399888275159659e-16 -1.803335880126553e-17 1.0
  outer loop
    vertex 6.499999999999999 65.5 7.0
    vertex 6.499999999999999 14.499999999999998 7.0
    vertex 6.499999999999999 15.999999999999996 6.999999999999996
  endloop
endfacet
facet normal 9.399888275159659e-16 -1.803335880126553e-17 1.0
  outer loop
    vertex 6.499999999999999 65.5 7.0
    vertex 6.499999999999999 15.999999999999996 6.999999999999996
    vertex 6.499999999999999 64.0 6.999999999999998
  endloop
endfacet
facet normal 1.0 7.188149857475033e-16 -9.633284971351386e-31
  outer loop
    vertex 6.499999999999963 65.49999999999999 9.00000000000002
    vertex 6.499999999999999 14.499999999999996 10.99999999999999
    vertex 6.499999999999999 14.499999999999996 9.0
  endloop
endfacet
facet normal 1.0 7.188149857475033e-16 -9.633284971351386e-31
  outer loop
    vertex 6.499999999999999 14.499999999999996 10.99999999999999
    vertex 6.499999999999963 65.49999999999999 9.00000000000002
    vertex 6.499999999999963 65.5 10.999999999999996
  endloop
endfacet
facet normal 1.2533184366879532e-15 1.0 6.266592183439806e-16
  outer loop
    vertex 2.000000000000002 67.5 11.000000000000002
    vertex 6.500000000000002 67.5 2.000000000000001
    vertex 2.000000000000002 67.5 2.000000000000001
  endloop
endfacet
facet normal 1.2533184366879532e-15 1.0 6.266592183439806e-16
  outer loop
    vertex 6.500000000000002 67.5 2.000000000000001
    vertex 2.000000000000002 67.5 11.000000000000002
    vertex 6.499999999999953 67.49999999999999 11.000000000000021
  endloop
endfacet
facet normal -6.266592183439769e-16 2.7066866345109575e-17 1.0
  outer loop
    vertex 80.5 12.5 9.0
    vertex 76.0 14.499999999999996 8.999999999999998
    vertex 76.0 12.5 9.0
  endloop
endfacet
facet normal -6.266592183439769e-16 2.7066866345109575e-17 1.0
  outer loop
    vertex 76.0 14.499999999999996 8.999999999999998
    vertex 80.5 12.5 9.0
    vertex 77.5 14.499999999999998 8.999999999999998
  endloop
endfacet
facet normal -6.266592183439769e-16 2.7066866345109575e-17 1.0
  outer loop
    vertex 77.5 14.499999999999998 8.999999999999998
    vertex 80.5 12.5 9.0
    vertex 77.5 65.5 8.999999999999998
  endloop
endfacet
facet normal -6.266592183439769e-16 2.7066866345109575e-17 1.0
  outer loop
    vertex 77.5 65.5 8.999999999999998
    vertex 76.0 67.5 8.999999999999996
    vertex 76.0 65.5 8.999999999999996
  endloop
endfacet
facet normal -6.266592183439769e-16 2.7066866345109575e-17 1.0
  outer loop
    vertex 76.0 67.5 8.999999999999996
    vertex 77.5 65.5 8.999999999999998
    vertex 80.5 67.5 9.0
  endloop
endfacet
facet normal -6.266592183439769e-16 2.7066866345109575e-17 1.0
  outer loop
    vertex 80.5 67.5 9.0
    vertex 77.5 65.5 8.999999999999998
    vertex 80.5 12.5 9.0
  endloop
endfacet
facet normal 0.0 -1.0 0.0
  outer loop
    vertex 76.0 64.0 6.999999999999997
    vertex 6.499999999999999 64.0 2.0000000000000004
    vertex 76.0 64.0 1.9999999999999998
  endloop
endfacet
facet normal 0.0 -1.0 0.0
  outer loop
    vertex 6.499999999999999 64.0 2.0000000000000004
    vertex 76.0 64.0 6.999999999999997
    vertex 6.499999999999999 64.0 6.999999999999998
  endloop
endfacet
facet normal -1.3657357839705992e-16 1.0 1.1037050812320854e-16
  outer loop
    vertex 6.500000000000002 67.5 2.000000000000001
    vertex 76.0 67.5 8.999999999999996
    vertex 76.0 67.5 1.9999999999999998
  endloop
endfacet
facet normal -1.3657357839705992e-16 1.0 1.1037050812320854e-16
  outer loop
    vertex 76.0 67.5 8.999999999999996
    vertex 6.500000000000002 67.5 2.000000000000001
    vertex 6.499999999999953 67.49999999999999 11.000000000000021
  endloop
endfacet
facet normal -1.3657357839705992e-16 1.0 1.1037050812320854e-16
  outer loop
    vertex 76.0 67.5 8.999999999999996
    vertex 6.499999999999953 67.49999999999999 11.000000000000021
    vertex 76.0 67.50000000000001 10.999999999999973
  endloop
endfacet
facet normal 1.0 0.0 0.0
  outer loop
    vertex 6.499999999999999 64.0 2.0000000000000004
    vertex 6.499999999999999 15.999999999999996 6.999999999999996
    vertex 6.499999999999999 15.999999999999996 1.9999999999999998
  endloop
endfacet
facet normal 1.0 0.0 0.0
  outer loop
    vertex 6.499999999999999 15.999999999999996 6.999999999999996
    vertex 6.499999999999999 64.0 2.0000000000000004
    vertex 6.499999999999999 64.0 6.999999999999998
  endloop
endfacet
facet normal 4.970444519598824e-16 -5.992428775414292e-15 1.0
  outer loop
    vertex 6.499999999999963 65.5 10.999999999999996
    vertex 76.0 67.50000000000001 10.999999999999973
    vertex 6.499999999999953 67.49999999999999 11.000000000000021
  endloop
endfacet
facet normal 4.970444519598824e-16 -5.992428775414292e-15 1.0
  outer loop
    vertex 76.0 67.50000000000001 10.999999999999973
    vertex 6.499999999999963 65.5 10.999999999999996
    vertex 76.0 65.50000000000001 10.999999999999973
  endloop
endfacet
facet normal 1.0 0.0 -1.623002292113893e-16
  outer loop
    vertex 76.0 67.5 8.999999999999996
    vertex 76.0 65.50000000000001 10.999999999999973
    vertex 76.0 65.5 8.999999999999996
  endloop
endfacet
facet normal 1.0 0.0 -1.623002292113893e-16
  outer loop
    vertex 76.0 65.50000000000001 10.999999999999973
    vertex 76.0 67.5 8.999999999999996
    vertex 76.0 67.50000000000001 10.999999999999973
  endloop
endfacet
facet normal -1.0 0.0 0.0
  outer loop
    vertex 76.0 64.0 6.999999999999997
    vertex 76.0 15.999999999999993 1.9999999999999998
    vertex 76.0 15.999999999999993 6.999999999999996
  endloop
endfacet
facet normal -1.0 0.0 0.0
  outer loop
    vertex 76.0 15.999999999999993 1.9999999999999998
    vertex 76.0 64.0 6.999999999999997
    vertex 76.0 64.0 1.9999999999999998
  endloop
endfacet
facet normal 1.3525019100949159e-17 1.0 3.524958103184886e-16
  outer loop
    vertex 6.499999999999999 14.499999999999998 7.0
    vertex 76.0 14.499999999999996 8.999999999999998
    vertex 76.0 14.499999999999996 6.999999999999998
  endloop
endfacet
facet normal 1.3525019100949159e-17 1.0 3.524958103184886e-16
  outer loop
    vertex 76.0 14.499999999999996 8.999999999999998
    vertex 6.499999999999999 14.499999999999998 7.0
    vertex 6.499999999999999 14.499999999999996 9.0
  endloop
endfacet
facet normal 1.3525019100949159e-17 1.0 3.524958103184886e-16
  outer loop
    vertex 76.0 14.499999999999996 8.999999999999998
    vertex 6.499999999999999 14.499999999999996 9.0
    vertex 76.0 14.499999999999996 10.999999999999988
  endloop
endfacet
facet normal 1.3525019100949159e-17 1.0 3.524958103184886e-16
  outer loop
    vertex 76.0 14.499999999999996 10.999999999999988
    vertex 6.499999999999999 14.499999999999996 9.0
    vertex 6.499999999999999 14.499999999999996 10.99999999999999
  endloop
endfacet
facet normal 2.0287528651423726e-17 -9.399888275159677e-16 1.0
  outer loop
    vertex 76.0 64.0 6.999999999999997
    vertex 6.499999999999999 65.5 7.0
    vertex 6.499999999999999 64.0 6.999999999999998
  endloop
endfacet
facet normal 2.0287528651423726e-17 -9.399888275159677e-16 1.0
  outer loop
    vertex 6.499999999999999 65.5 7.0
    vertex 76.0 64.0 6.999999999999997
    vertex 76.0 65.5 6.999999999999998
  endloop
endfacet
facet normal -7.049916206369756e-16 -9.016679400632765e-18 1.0
  outer loop
    vertex 77.5 14.499999999999998 6.999999999999998
    vertex 76.0 15.999999999999993 6.999999999999996
    vertex 76.0 14.499999999999996 6.999999999999998
  endloop
endfacet
facet normal -7.049916206369756e-16 -9.016679400632765e-18 1.0
  outer loop
    vertex 76.0 15.999999999999993 6.999999999999996
    vertex 77.5 14.499999999999998 6.999999999999998
    vertex 76.0 64.0 6.999999999999997
  endloop
endfacet
facet normal -7.049916206369756e-16 -9.016679400632765e-18 1.0
  outer loop
    vertex 76.0 64.0 6.999999999999997
    vertex 77.5 14.499999999999998 6.999999999999998
    vertex 76.0 65.5 6.999999999999998
  endloop
endfacet
facet normal -7.049916206369756e-16 -9.016679400632765e-18 1.0
  outer loop
    vertex 76.0 65.5 6.999999999999998
    vertex 77.5 14.499999999999998 6.999999999999998
    vertex 77.5 65.5 6.999999999999998
  endloop
endfacet
facet normal 5.0718821628559315e-18 -7.343662714968482e-18 1.0
  outer loop
    vertex 76.0 15.999999999999993 1.9999999999999998
    vertex 6.499999999999999 64.0 2.0000000000000004
    vertex 6.499999999999999 15.999999999999996 1.9999999999999998
  endloop
endfacet
facet normal 5.0718821628559315e-18 -7.343662714968482e-18 1.0
  outer loop
    vertex 6.499999999999999 64.0 2.0000000000000004
    vertex 76.0 15.999999999999993 1.9999999999999998
    vertex 76.0 64.0 1.9999999999999998
  endloop
endfacet
facet normal 0.0 -1.0 0.0
  outer loop
    vertex 77.5 65.5 8.999999999999998
    vertex 76.0 65.5 6.999999999999998
    vertex 77.5 65.5 6.999999999999998
  endloop
endfacet
facet normal 0.0 -1.0 0.0
  outer loop
    vertex 76.0 65.5 6.999999999999998
    vertex 77.5 65.5 8.999999999999998
    vertex 76.0 65.5 8.999999999999996
  endloop
endfacet
facet normal -1.0 0.0 0.0
  outer loop
    vertex 0.0 80.0 11.000000000000016
    vertex 0.0 0.0 0.0
    vertex 0.0 0.0 11.000000000000016
  endloop
endfacet
facet normal -1.0 0.0 0.0
  outer loop
    vertex 0.0 0.0 0.0
    vertex 0.0 80.0 11.000000000000016
    vertex 0.0 80.0 0.0
  endloop
endfacet
facet normal 1.0 0.0 0.0
  outer loop
    vertex 120.0 80.0 0.0
    vertex 120.0 0.0 11.000000000000016
    vertex 120.0 0.0 0.0
  endloop
endfacet
facet normal 1.0 0.0 0.0
  outer loop
    vertex 120.0 0.0 11.000000000000016
    vertex 120.0 80.0 0.0
    vertex 120.0 80.0 11.000000000000016
  endloop
endfacet
facet normal 0.0 1.0 0.0
  outer loop
    vertex 0.0 80.0 11.000000000000016
    vertex 120.0 80.0 0.0
    vertex 0.0 80.0 0.0
  endloop
endfacet
facet normal 0.0 1.0 0.0
  outer loop
    vertex 120.0 80.0 0.0
    vertex 0.0 80.0 11.000000000000016
    vertex 120.0 80.0 11.000000000000016
  endloop
endfacet
facet normal 6.109927378853778e-15 1.7970374643687798e-16 -1.0
  outer loop
    vertex 6.499999999999963 65.49999999999999 9.00000000000002
    vertex 4.999999999999999 14.499999999999996 9.0
    vertex 4.999999999999999 65.5 9.0
  endloop
endfacet
facet normal 6.109927378853778e-15 1.7970374643687798e-16 -1.0
  outer loop
    vertex 4.999999999999999 14.499999999999996 9.0
    vertex 6.499999999999963 65.49999999999999 9.00000000000002
    vertex 6.499999999999999 14.499999999999996 9.0
  endloop
endfacet
facet normal -0.0 -1.0 -0.0
  outer loop
    vertex 120.0 0.0 11.000000000000016
    vertex 0.0 0.0 0.0
    vertex 120.0 0.0 0.0
  endloop
endfacet
facet normal -0.0 -1.0 -0.0
  outer loop
    vertex 0.0 0.0 0.0
    vertex 120.0 0.0 11.000000000000016
    vertex 0.0 0.0 11.000000000000016
  endloop
endfacet
facet normal -3.759955310063845e-15 -1.0 -2.819966482547931e-15
  outer loop
    vertex 6.499999999999963 65.49999999999999 9.00000000000002
    vertex 4.999999999999999 65.5 7.0
    vertex 6.499999999999999 65.5 7.0
  endloop
endfacet
facet normal -3.759955310063845e-15 -1.0 -2.819966482547931e-15
  outer loop
    vertex 4.999999999999999 65.5 7.0
    vertex 6.499999999999963 65.49999999999999 9.00000000000002
    vertex 4.999999999999999 65.5 9.0
  endloop
endfacet
facet normal 0.0 1.0 0.0
  outer loop
    vertex 76.0 67.5 8.999999999999996
    vertex 80.5 67.5 1.9999999999999998
    vertex 76.0 67.5 1.9999999999999998
  endloop
endfacet
facet normal 0.0 1.0 0.0
  outer loop
    vertex 80.5 67.5 1.9999999999999998
    vertex 76.0 67.5 8.999999999999996
    vertex 80.5 67.5 9.0
  endloop
endfacet
facet normal -1.0 0.0 0.0
  outer loop
    vertex 77.5 65.5 8.999999999999998
    vertex 77.5 14.499999999999998 6.999999999999998
    vertex 77.5 14.499999999999998 8.999999999999998
  endloop
endfacet
facet normal -1.0 0.0 0.0
  outer loop
    vertex 77.5 14.499999999999998 6.999999999999998
    vertex 77.5 65.5 8.999999999999998
    vertex 77.5 65.5 6.999999999999998
  endloop
endfacet
facet normal 1.0143764325711958e-17 2.349972068789919e-15 1.0
  outer loop
    vertex 76.0 14.499999999999996 6.999999999999998
    vertex 6.499999999999999 15.999999999999996 6.999999999999996
    vertex 6.499999999999999 14.499999999999998 7.0
  endloop
endfacet
facet normal 1.0143764325711958e-17 2.349972068789919e-15 1.0
  outer loop
    vertex 6.499999999999999 15.999999999999996 6.999999999999996
    vertex 76.0 14.499999999999996 6.999999999999998
    vertex 76.0 15.999999999999993 6.999999999999996
  endloop
endfacet
facet normal 4.057505730284745e-17 1.0 0.0
  outer loop
    vertex 6.499999999999999 15.999999999999996 6.999999999999996
    vertex 76.0 15.999999999999993 1.9999999999999998
    vertex 6.499999999999999 15.999999999999996 1.9999999999999998
  endloop
endfacet
facet normal 4.057505730284745e-17 1.0 0.0
  outer loop
    vertex 76.0 15.999999999999993 1.9999999999999998
    vertex 6.499999999999999 15.999999999999996 6.999999999999996
    vertex 76.0 15.999999999999993 6.999999999999996
  endloop
endfacet
facet normal -8.829640649856431e-17 -1.0 5.960007438653095e-16
  outer loop
    vertex 76.0 12.5 9.0
    vertex 6.499999999999999 12.5 1.9999999999999998
    vertex 76.0 12.5 1.9999999999999998
  endloop
endfacet
facet normal -8.829640649856431e-17 -1.0 5.960007438653095e-16
  outer loop
    vertex 6.499999999999999 12.5 1.9999999999999998
    vertex 76.0 12.5 9.0
    vertex 6.500000000000001 12.50000000000001 10.999999999999996
  endloop
endfacet
facet normal -8.829640649856431e-17 -1.0 5.960007438653095e-16
  outer loop
    vertex 6.500000000000001 12.50000000000001 10.999999999999996
    vertex 76.0 12.5 9.0
    vertex 76.0 12.5 10.99999999999999
  endloop
endfacet
facet normal 1.0820015280759352e-16 -1.0 1.4099832412739387e-15
  outer loop
    vertex 76.0 65.5 8.999999999999996
    vertex 6.499999999999999 65.5 7.0
    vertex 76.0 65.5 6.999999999999998
  endloop
endfacet
facet normal 1.0820015280759352e-16 -1.0 1.4099832412739387e-15
  outer loop
    vertex 6.499999999999999 65.5 7.0
    vertex 76.0 65.5 8.999999999999996
    vertex 6.499999999999963 65.49999999999999 9.00000000000002
  endloop
endfacet
facet normal 1.0820015280759352e-16 -1.0 1.4099832412739387e-15
  outer loop
    vertex 6.499999999999963 65.49999999999999 9.00000000000002
    vertex 76.0 65.5 8.999999999999996
    vertex 76.0 65.50000000000001 10.999999999999973
  endloop
endfacet
facet normal 1.0820015280759352e-16 -1.0 1.4099832412739387e-15
  outer loop
    vertex 6.499999999999963 65.49999999999999 9.00000000000002
    vertex 76.0 65.50000000000001 10.999999999999973
    vertex 6.499999999999963 65.5 10.999999999999996
  endloop
endfacet
endsolid SP_Base_2016
