solid OpenSCAD_Model
  facet normal -1 0 0
    outer loop
      vertex 2.4 0.81 2.8
      vertex 2.4 0 2.8
      vertex 2.4 0 2.9
    endloop
  endfacet
  facet normal -1 -0 0
    outer loop
      vertex 2.4 0.84 2.9
      vertex 2.4 0.81 2.8
      vertex 2.4 0 2.9
    endloop
  endfacet
  facet normal -1 0 0
    outer loop
      vertex 2.4 9.19 2.8
      vertex 2.4 9.16 2.9
      vertex 2.4 10 2.9
    endloop
  endfacet
  facet normal -1 0 0
    outer loop
      vertex 2.4 10 2.8
      vertex 2.4 9.19 2.8
      vertex 2.4 10 2.9
    endloop
  endfacet
  facet normal 0 -1 0
    outer loop
      vertex 2.4 0 2.9
      vertex 2.4 0 2.8
      vertex 12.2 0 2.8
    endloop
  endfacet
  facet normal -0 -1 -0
    outer loop
      vertex 12.2 0 2.9
      vertex 2.4 0 2.9
      vertex 12.2 0 2.8
    endloop
  endfacet
  facet normal -0 0 -1
    outer loop
      vertex 4.19 0.81 2.8
      vertex 2.4 0 2.8
      vertex 2.4 0.81 2.8
    endloop
  endfacet
  facet normal 0 -0 -1
    outer loop
      vertex 4.19 0.81 2.8
      vertex 5.61 0.81 2.8
      vertex 2.4 0 2.8
    endloop
  endfacet
  facet normal 0 -0 -1
    outer loop
      vertex 5.61 0.81 2.8
      vertex 8.99 0.81 2.8
      vertex 2.4 0 2.8
    endloop
  endfacet
  facet normal 0 0 -1
    outer loop
      vertex 2.4 10 2.8
      vertex 4.19 9.19 2.8
      vertex 2.4 9.19 2.8
    endloop
  endfacet
  facet normal 0 0 -1
    outer loop
      vertex 8.99 9.19 2.8
      vertex 10.41 9.19 2.8
      vertex 10.41 0.81 2.8
    endloop
  endfacet
  facet normal 0 0 -1
    outer loop
      vertex 8.99 0.81 2.8
      vertex 8.99 9.19 2.8
      vertex 10.41 0.81 2.8
    endloop
  endfacet
  facet normal 0 -0 -1
    outer loop
      vertex 12.2 10 2.8
      vertex 12.2 9.19 2.8
      vertex 10.41 9.19 2.8
    endloop
  endfacet
  facet normal 0 0 -1
    outer loop
      vertex 4.19 9.19 2.8
      vertex 5.61 9.19 2.8
      vertex 5.61 0.81 2.8
    endloop
  endfacet
  facet normal 0 0 -1
    outer loop
      vertex 10.41 0.81 2.8
      vertex 12.2 0.81 2.8
      vertex 12.2 0 2.8
    endloop
  endfacet
  facet normal 0 0 -1
    outer loop
      vertex 2.4 10 2.8
      vertex 5.61 9.19 2.8
      vertex 4.19 9.19 2.8
    endloop
  endfacet
  facet normal 0 0 -1
    outer loop
      vertex 2.4 10 2.8
      vertex 12.2 10 2.8
      vertex 8.99 9.19 2.8
    endloop
  endfacet
  facet normal 0 0 -1
    outer loop
      vertex 12.2 0 2.8
      vertex 2.4 0 2.8
      vertex 8.99 0.81 2.8
    endloop
  endfacet
  facet normal 0 0 -1
    outer loop
      vertex 4.19 0.81 2.8
      vertex 4.19 9.19 2.8
      vertex 5.61 0.81 2.8
    endloop
  endfacet
  facet normal 0 0 -1
    outer loop
      vertex 12.2 0 2.8
      vertex 8.99 0.81 2.8
      vertex 10.41 0.81 2.8
    endloop
  endfacet
  facet normal 0 0 -1
    outer loop
      vertex 2.4 10 2.8
      vertex 8.99 9.19 2.8
      vertex 5.61 9.19 2.8
    endloop
  endfacet
  facet normal 0 0 -1
    outer loop
      vertex 12.2 10 2.8
      vertex 10.41 9.19 2.8
      vertex 8.99 9.19 2.8
    endloop
  endfacet
  facet normal -0.957826 -1.37145e-016 0.287348
    outer loop
      vertex 2.46 0.9 3.1
      vertex 2.4 0 2.9
      vertex 3.3 0.9 5.9
    endloop
  endfacet
  facet normal -0.957826 0 0.287348
    outer loop
      vertex 2.46 0.9 3.1
      vertex 2.4 0.84 2.9
      vertex 2.4 0 2.9
    endloop
  endfacet
  facet normal -0.957826 0 0.287348
    outer loop
      vertex 2.4 10 2.9
      vertex 2.4 9.16 2.9
      vertex 2.46 9.1 3.1
    endloop
  endfacet
  facet normal -0.957826 0 0.287348
    outer loop
      vertex 3.3 9.1 5.9
      vertex 2.46 9.1 3.1
      vertex 3.3 0.9 5.9
    endloop
  endfacet
  facet normal -0.957826 1.68794e-016 0.287348
    outer loop
      vertex 3.3 9.1 5.9
      vertex 2.4 10 2.9
      vertex 2.46 9.1 3.1
    endloop
  endfacet
  facet normal -0.957826 0 0.287348
    outer loop
      vertex 2.46 9.1 3.1
      vertex 2.46 0.9 3.1
      vertex 3.3 0.9 5.9
    endloop
  endfacet
  facet normal 0 -0.957826 0.287348
    outer loop
      vertex 11.3 0.9 5.9
      vertex 10.6789 0.9 5.9
      vertex 10.6895 0.84 5.7
    endloop
  endfacet
  facet normal 0 -0.957826 0.287348
    outer loop
      vertex 7.3 0.1 3.23333
      vertex 6.59 0.81 5.6
      vertex 6.36459 0.81 5.6
    endloop
  endfacet
  facet normal 8.57561e-016 -0.957826 0.287348
    outer loop
      vertex 10.6071 0.81 5.6
      vertex 11.3 0.9 5.9
      vertex 10.6895 0.84 5.7
    endloop
  endfacet
  facet normal 0 -0.957826 0.287348
    outer loop
      vertex 7.3 0.1 3.23333
      vertex 10.6071 0.81 5.6
      vertex 8.01 0.81 5.6
    endloop
  endfacet
  facet normal 0 -0.957826 0.287348
    outer loop
      vertex 12.2 0 2.9
      vertex 11.3 0.9 5.9
      vertex 10.6071 0.81 5.6
    endloop
  endfacet
  facet normal 0 -0.957826 0.287348
    outer loop
      vertex 12.2 0 2.9
      vertex 7.3 0.1 3.23333
      vertex 2.4 0 2.9
    endloop
  endfacet
  facet normal 1.25608e-017 -0.957826 0.287348
    outer loop
      vertex 12.2 0 2.9
      vertex 10.6071 0.81 5.6
      vertex 7.3 0.1 3.23333
    endloop
  endfacet
  facet normal 0 -0.957826 0.287348
    outer loop
      vertex 2.4 0 2.9
      vertex 6.36459 0.81 5.6
      vertex 3.3 0.9 5.9
    endloop
  endfacet
  facet normal -1.33947e-017 -0.957826 0.287348
    outer loop
      vertex 2.4 0 2.9
      vertex 7.3 0.1 3.23333
      vertex 6.36459 0.81 5.6
    endloop
  endfacet
  facet normal -1.26049e-016 -0.957826 0.287348
    outer loop
      vertex 6.36459 0.81 5.6
      vertex 6.35367 0.84 5.7
      vertex 3.3 0.9 5.9
    endloop
  endfacet
  facet normal 0 -0.957826 0.287348
    outer loop
      vertex 6.35367 0.84 5.7
      vertex 6.39568 0.9 5.9
      vertex 3.3 0.9 5.9
    endloop
  endfacet
  facet normal 0 0.957826 0.287348
    outer loop
      vertex 4.32106 9.1 5.9
      vertex 4.31048 9.16 5.7
      vertex 3.3 9.1 5.9
    endloop
  endfacet
  facet normal 0 0.957826 0.287348
    outer loop
      vertex 7.3 9.9 3.23333
      vertex 12.2 10 2.9
      vertex 2.4 10 2.9
    endloop
  endfacet
  facet normal -0 0.957826 0.287348
    outer loop
      vertex 4.39291 9.19 5.6
      vertex 6.59 9.19 5.6
      vertex 7.3 9.9 3.23333
    endloop
  endfacet
  facet normal 4.32271e-015 0.957826 0.287348
    outer loop
      vertex 3.3 9.1 5.9
      vertex 4.31048 9.16 5.7
      vertex 4.39291 9.19 5.6
    endloop
  endfacet
  facet normal 1.0488e-016 0.957826 0.287348
    outer loop
      vertex 3.3 9.1 5.9
      vertex 4.39291 9.19 5.6
      vertex 2.4 10 2.9
    endloop
  endfacet
  facet normal -0 0.957826 0.287348
    outer loop
      vertex 8.01 9.19 5.6
      vertex 8.63541 9.19 5.6
      vertex 7.3 9.9 3.23333
    endloop
  endfacet
  facet normal 2.53882e-016 0.957826 0.287348
    outer loop
      vertex 4.39291 9.19 5.6
      vertex 7.3 9.9 3.23333
      vertex 2.4 10 2.9
    endloop
  endfacet
  facet normal -2.64927e-016 0.957826 0.287348
    outer loop
      vertex 8.63541 9.19 5.6
      vertex 12.2 10 2.9
      vertex 7.3 9.9 3.23333
    endloop
  endfacet
  facet normal -1.38893e-015 0.957826 0.287348
    outer loop
      vertex 8.64633 9.16 5.7
      vertex 11.3 9.1 5.9
      vertex 8.63541 9.19 5.6
    endloop
  endfacet
  facet normal -0 0.957826 0.287348
    outer loop
      vertex 8.60432 9.1 5.9
      vertex 11.3 9.1 5.9
      vertex 8.64633 9.16 5.7
    endloop
  endfacet
  facet normal -4.50388e-017 0.957826 0.287348
    outer loop
      vertex 11.3 9.1 5.9
      vertex 12.2 10 2.9
      vertex 8.63541 9.19 5.6
    endloop
  endfacet
  facet normal 0.957826 0 0.287348
    outer loop
      vertex 7.3 9.9 3.23333
      vertex 6.59 0.81 5.6
      vertex 7.3 0.1 3.23333
    endloop
  endfacet
  facet normal 0.957826 0 0.287348
    outer loop
      vertex 7.3 9.9 3.23333
      vertex 6.59 9.19 5.6
      vertex 6.59 0.81 5.6
    endloop
  endfacet
  facet normal 0 1 0
    outer loop
      vertex 12.2 10 2.8
      vertex 2.4 10 2.8
      vertex 2.4 10 2.9
    endloop
  endfacet
  facet normal 0 1 0
    outer loop
      vertex 12.2 10 2.9
      vertex 12.2 10 2.8
      vertex 2.4 10 2.9
    endloop
  endfacet
  facet normal 0 0 1
    outer loop
      vertex 3.51757 8.80755 5.9
      vertex 3.3 0.9 5.9
      vertex 6.39568 0.9 5.9
    endloop
  endfacet
  facet normal 0 0 1
    outer loop
      vertex 3.71804 8.88052 5.9
      vertex 3.3 9.1 5.9
      vertex 3.51757 8.80755 5.9
    endloop
  endfacet
  facet normal 0 0 1
    outer loop
      vertex 3.51757 8.80755 5.9
      vertex 3.3 9.1 5.9
      vertex 3.3 0.9 5.9
    endloop
  endfacet
  facet normal 0 0 1
    outer loop
      vertex 4.32106 9.1 5.9
      vertex 3.3 9.1 5.9
      vertex 3.71804 8.88052 5.9
    endloop
  endfacet
  facet normal -0.957826 0 0.287348
    outer loop
      vertex 7.3 9.9 3.23333
      vertex 7.3 0.1 3.23333
      vertex 8.01 0.81 5.6
    endloop
  endfacet
  facet normal -0.957826 0 0.287348
    outer loop
      vertex 8.01 9.19 5.6
      vertex 7.3 9.9 3.23333
      vertex 8.01 0.81 5.6
    endloop
  endfacet
  facet normal 1 0 0
    outer loop
      vertex 12.2 0 2.9
      vertex 12.2 0 2.8
      vertex 12.2 0.81 2.8
    endloop
  endfacet
  facet normal 1 0 0
    outer loop
      vertex 12.2 0.84 2.9
      vertex 12.2 0 2.9
      vertex 12.2 0.81 2.8
    endloop
  endfacet
  facet normal 1 0 0
    outer loop
      vertex 12.2 10 2.9
      vertex 12.2 9.16 2.9
      vertex 12.2 9.19 2.8
    endloop
  endfacet
  facet normal 1 0 -0
    outer loop
      vertex 12.2 10 2.8
      vertex 12.2 10 2.9
      vertex 12.2 9.19 2.8
    endloop
  endfacet
  facet normal 0.957826 0 0.287348
    outer loop
      vertex 12.2 0.84 2.9
      vertex 12.14 0.9 3.1
      vertex 12.2 0 2.9
    endloop
  endfacet
  facet normal 0.957826 1.80359e-016 0.287348
    outer loop
      vertex 12.2 0 2.9
      vertex 12.14 0.9 3.1
      vertex 11.39 1.09496 5.6
    endloop
  endfacet
  facet normal 0.957826 -1.89893e-016 0.287348
    outer loop
      vertex 12.2 10 2.9
      vertex 11.3 9.1 5.9
      vertex 12.14 9.1 3.1
    endloop
  endfacet
  facet normal 0.957826 0 0.287348
    outer loop
      vertex 12.2 10 2.9
      vertex 12.14 9.1 3.1
      vertex 12.2 9.16 2.9
    endloop
  endfacet
  facet normal 0.957826 9.61876e-016 0.287348
    outer loop
      vertex 11.36 1.08404 5.7
      vertex 11.305 1.12256 5.8834
      vertex 11.3 0.9 5.9
    endloop
  endfacet
  facet normal 0.957826 0 0.287348
    outer loop
      vertex 11.3 9.1 5.9
      vertex 11.3 1.69367 5.9
      vertex 11.36 1.70425 5.7
    endloop
  endfacet
  facet normal 0.957826 0 0.287348
    outer loop
      vertex 12.14 9.1 3.1
      vertex 11.36 1.70425 5.7
      vertex 12.14 0.9 3.1
    endloop
  endfacet
  facet normal 0.957826 4.10815e-017 0.287348
    outer loop
      vertex 12.14 9.1 3.1
      vertex 11.3 9.1 5.9
      vertex 11.36 1.70425 5.7
    endloop
  endfacet
  facet normal 0.957826 -1.11202e-014 0.287348
    outer loop
      vertex 12.14 0.9 3.1
      vertex 11.36 1.70425 5.7
      vertex 11.39 1.62182 5.6
    endloop
  endfacet
  facet normal 0.957826 9.95151e-016 0.287348
    outer loop
      vertex 12.2 0 2.9
      vertex 11.39 1.09496 5.6
      vertex 11.3 0.9 5.9
    endloop
  endfacet
  facet normal 0.957826 0 0.287348
    outer loop
      vertex 12.14 0.9 3.1
      vertex 11.39 1.62182 5.6
      vertex 11.39 1.09496 5.6
    endloop
  endfacet
  facet normal 0.957826 -8.91232e-015 0.287348
    outer loop
      vertex 11.39 1.09496 5.6
      vertex 11.36 1.08404 5.7
      vertex 11.3 0.9 5.9
    endloop
  endfacet
  facet normal 0.957826 -0 0.287348
    outer loop
      vertex 11.3 0.9 5.9
      vertex 11.305 1.12256 5.8834
      vertex 11.3 1.12605 5.9
    endloop
  endfacet
  facet normal 0 0 1
    outer loop
      vertex 11.282 1.11948 5.9
      vertex 10.6789 0.9 5.9
      vertex 11.3 0.9 5.9
    endloop
  endfacet
  facet normal 0 0 1
    outer loop
      vertex 11.3 1.12605 5.9
      vertex 11.282 1.11948 5.9
      vertex 11.3 0.9 5.9
    endloop
  endfacet
  facet normal 0 0 1
    outer loop
      vertex 11.3 9.1 5.9
      vertex 8.60432 9.1 5.9
      vertex 11.3 1.69367 5.9
    endloop
  endfacet
  facet normal -1 0 0
    outer loop
      vertex 0 10 0
      vertex 0 0 0
      vertex 0 0 0.1
    endloop
  endfacet
  facet normal -1 -0 -0
    outer loop
      vertex 0 10 0.1
      vertex 0 10 0
      vertex 0 0 0.1
    endloop
  endfacet
  facet normal 0 -1 0
    outer loop
      vertex 0 0 0.1
      vertex 0 0 0
      vertex 14.6 0 0
    endloop
  endfacet
  facet normal -0 -1 -0
    outer loop
      vertex 14.6 0 0.1
      vertex 0 0 0.1
      vertex 14.6 0 0
    endloop
  endfacet
  facet normal 0 0 -1
    outer loop
      vertex 14.6 0 0
      vertex 0 0 0
      vertex 0 10 0
    endloop
  endfacet
  facet normal -0 -0 -1
    outer loop
      vertex 14.6 10 0
      vertex 14.6 0 0
      vertex 0 10 0
    endloop
  endfacet
  facet normal -0.957826 0 0.287348
    outer loop
      vertex 0.9 9.1 3.1
      vertex 0 0 0.1
      vertex 0.9 0.9 3.1
    endloop
  endfacet
  facet normal -0.957826 0 0.287348
    outer loop
      vertex 0.9 9.1 3.1
      vertex 0 10 0.1
      vertex 0 0 0.1
    endloop
  endfacet
  facet normal 0 -0.957826 0.287348
    outer loop
      vertex 13.7 0.9 3.1
      vertex 12.14 0.9 3.1
      vertex 12.2 0.84 2.9
    endloop
  endfacet
  facet normal 0 -0.957826 0.287348
    outer loop
      vertex 4.9 0.1 0.433333
      vertex 8.99 0.81 2.8
      vertex 5.61 0.81 2.8
    endloop
  endfacet
  facet normal -3.32313e-017 -0.957826 0.287348
    outer loop
      vertex 12.2 0.81 2.8
      vertex 13.7 0.9 3.1
      vertex 12.2 0.84 2.9
    endloop
  endfacet
  facet normal 0 -0.957826 0.287348
    outer loop
      vertex 9.7 0.1 0.433333
      vertex 12.2 0.81 2.8
      vertex 10.41 0.81 2.8
    endloop
  endfacet
  facet normal 0 -0.957826 0.287348
    outer loop
      vertex 14.6 0 0.1
      vertex 13.7 0.9 3.1
      vertex 12.2 0.81 2.8
    endloop
  endfacet
  facet normal 0 -0.957826 0.287348
    outer loop
      vertex 14.6 0 0.1
      vertex 9.7 0.1 0.433333
      vertex 4.9 0.1 0.433333
    endloop
  endfacet
  facet normal -4.27756e-018 -0.957826 0.287348
    outer loop
      vertex 14.6 0 0.1
      vertex 12.2 0.81 2.8
      vertex 9.7 0.1 0.433333
    endloop
  endfacet
  facet normal 0 -0.957826 0.287348
    outer loop
      vertex 2.4 0.81 2.8
      vertex 4.9 0.1 0.433333
      vertex 4.19 0.81 2.8
    endloop
  endfacet
  facet normal -1.66156e-018 -0.957826 0.287348
    outer loop
      vertex 4.9 0.1 0.433333
      vertex 9.7 0.1 0.433333
      vertex 8.99 0.81 2.8
    endloop
  endfacet
  facet normal 0 -0.957826 0.287348
    outer loop
      vertex 0 0 0.1
      vertex 14.6 0 0.1
      vertex 4.9 0.1 0.433333
    endloop
  endfacet
  facet normal 1.71102e-017 -0.957826 0.287348
    outer loop
      vertex 2.4 0.81 2.8
      vertex 0 0 0.1
      vertex 4.9 0.1 0.433333
    endloop
  endfacet
  facet normal 0 -0.957826 0.287348
    outer loop
      vertex 0.9 0.9 3.1
      vertex 0 0 0.1
      vertex 2.4 0.81 2.8
    endloop
  endfacet
  facet normal 4.43084e-017 -0.957826 0.287348
    outer loop
      vertex 0.9 0.9 3.1
      vertex 2.4 0.81 2.8
      vertex 2.4 0.84 2.9
    endloop
  endfacet
  facet normal 0 -0.957826 0.287348
    outer loop
      vertex 2.4 0.84 2.9
      vertex 2.46 0.9 3.1
      vertex 0.9 0.9 3.1
    endloop
  endfacet
  facet normal 0 0.957826 0.287348
    outer loop
      vertex 2.46 9.1 3.1
      vertex 2.4 9.16 2.9
      vertex 0.9 9.1 3.1
    endloop
  endfacet
  facet normal 0 0.957826 0.287348
    outer loop
      vertex 4.9 9.9 0.433333
      vertex 14.6 10 0.1
      vertex 0 10 0.1
    endloop
  endfacet
  facet normal -0 0.957826 0.287348
    outer loop
      vertex 2.4 9.19 2.8
      vertex 4.19 9.19 2.8
      vertex 4.9 9.9 0.433333
    endloop
  endfacet
  facet normal 2.52558e-015 0.957826 0.287348
    outer loop
      vertex 0.9 9.1 3.1
      vertex 2.4 9.16 2.9
      vertex 2.4 9.19 2.8
    endloop
  endfacet
  facet normal 1.56055e-016 0.957826 0.287348
    outer loop
      vertex 0.9 9.1 3.1
      vertex 2.4 9.19 2.8
      vertex 0 10 0.1
    endloop
  endfacet
  facet normal -0 0.957826 0.287348
    outer loop
      vertex 5.61 9.19 2.8
      vertex 8.99 9.19 2.8
      vertex 4.9 9.9 0.433333
    endloop
  endfacet
  facet normal 2.73764e-016 0.957826 0.287348
    outer loop
      vertex 2.4 9.19 2.8
      vertex 4.9 9.9 0.433333
      vertex 0 10 0.1
    endloop
  endfacet
  facet normal -5.98163e-017 0.957826 0.287348
    outer loop
      vertex 9.7 9.9 0.433333
      vertex 14.6 10 0.1
      vertex 4.9 9.9 0.433333
    endloop
  endfacet
  facet normal -0 0.957826 0.287348
    outer loop
      vertex 10.41 9.19 2.8
      vertex 12.2 9.19 2.8
      vertex 9.7 9.9 0.433333
    endloop
  endfacet
  facet normal -5.61655e-017 0.957826 0.287348
    outer loop
      vertex 8.99 9.19 2.8
      vertex 9.7 9.9 0.433333
      vertex 4.9 9.9 0.433333
    endloop
  endfacet
  facet normal -2.05323e-016 0.957826 0.287348
    outer loop
      vertex 12.2 9.19 2.8
      vertex 14.6 10 0.1
      vertex 9.7 9.9 0.433333
    endloop
  endfacet
  facet normal -2.52558e-015 0.957826 0.287348
    outer loop
      vertex 12.2 9.16 2.9
      vertex 13.7 9.1 3.1
      vertex 12.2 9.19 2.8
    endloop
  endfacet
  facet normal -0 0.957826 0.287348
    outer loop
      vertex 12.14 9.1 3.1
      vertex 13.7 9.1 3.1
      vertex 12.2 9.16 2.9
    endloop
  endfacet
  facet normal -1.56055e-016 0.957826 0.287348
    outer loop
      vertex 13.7 9.1 3.1
      vertex 14.6 10 0.1
      vertex 12.2 9.19 2.8
    endloop
  endfacet
  facet normal 0.957826 0 0.287348
    outer loop
      vertex 4.9 9.9 0.433333
      vertex 4.19 0.81 2.8
      vertex 4.9 0.1 0.433333
    endloop
  endfacet
  facet normal 0.957826 0 0.287348
    outer loop
      vertex 4.9 9.9 0.433333
      vertex 4.19 9.19 2.8
      vertex 4.19 0.81 2.8
    endloop
  endfacet
  facet normal 0 1 0
    outer loop
      vertex 14.6 10 0
      vertex 0 10 0
      vertex 0 10 0.1
    endloop
  endfacet
  facet normal 0 1 0
    outer loop
      vertex 14.6 10 0.1
      vertex 14.6 10 0
      vertex 0 10 0.1
    endloop
  endfacet
  facet normal 0 0 1
    outer loop
      vertex 0.9 9.1 3.1
      vertex 0.9 0.9 3.1
      vertex 2.46 0.9 3.1
    endloop
  endfacet
  facet normal 0 0 1
    outer loop
      vertex 2.46 9.1 3.1
      vertex 0.9 9.1 3.1
      vertex 2.46 0.9 3.1
    endloop
  endfacet
  facet normal -0.957826 0 0.287348
    outer loop
      vertex 4.9 9.9 0.433333
      vertex 4.9 0.1 0.433333
      vertex 5.61 0.81 2.8
    endloop
  endfacet
  facet normal -0.957826 0 0.287348
    outer loop
      vertex 5.61 9.19 2.8
      vertex 4.9 9.9 0.433333
      vertex 5.61 0.81 2.8
    endloop
  endfacet
  facet normal 0.957826 0 0.287348
    outer loop
      vertex 9.7 9.9 0.433333
      vertex 8.99 0.81 2.8
      vertex 9.7 0.1 0.433333
    endloop
  endfacet
  facet normal 0.957826 0 0.287348
    outer loop
      vertex 9.7 9.9 0.433333
      vertex 8.99 9.19 2.8
      vertex 8.99 0.81 2.8
    endloop
  endfacet
  facet normal -0.957826 0 0.287348
    outer loop
      vertex 9.7 9.9 0.433333
      vertex 9.7 0.1 0.433333
      vertex 10.41 0.81 2.8
    endloop
  endfacet
  facet normal -0.957826 0 0.287348
    outer loop
      vertex 10.41 9.19 2.8
      vertex 9.7 9.9 0.433333
      vertex 10.41 0.81 2.8
    endloop
  endfacet
  facet normal 1 0 0
    outer loop
      vertex 14.6 0 0.1
      vertex 14.6 0 0
      vertex 14.6 10 0
    endloop
  endfacet
  facet normal 1 0 0
    outer loop
      vertex 14.6 10 0.1
      vertex 14.6 0 0.1
      vertex 14.6 10 0
    endloop
  endfacet
  facet normal 0.957826 0 0.287348
    outer loop
      vertex 13.7 9.1 3.1
      vertex 13.7 0.9 3.1
      vertex 14.6 0 0.1
    endloop
  endfacet
  facet normal 0.957826 0 0.287348
    outer loop
      vertex 14.6 10 0.1
      vertex 13.7 9.1 3.1
      vertex 14.6 0 0.1
    endloop
  endfacet
  facet normal 0 0 1
    outer loop
      vertex 12.14 9.1 3.1
      vertex 12.14 0.9 3.1
      vertex 13.7 0.9 3.1
    endloop
  endfacet
  facet normal 0 0 1
    outer loop
      vertex 13.7 9.1 3.1
      vertex 12.14 9.1 3.1
      vertex 13.7 0.9 3.1
    endloop
  endfacet
  facet normal -0.34202 0.939693 1.09677e-014
    outer loop
      vertex 4.39291 9.19 5.6
      vertex 4.31048 9.16 5.7
      vertex 8.13913 10.5535 5.7
    endloop
  endfacet
  facet normal -0.34202 0.939693 0
    outer loop
      vertex 8.13913 10.5535 5.6
      vertex 4.39291 9.19 5.6
      vertex 8.13913 10.5535 5.7
    endloop
  endfacet
  facet normal -0.939693 -0.34202 7.4866e-016
    outer loop
      vertex 6.86087 -0.553513 5.7
      vertex 6.35367 0.84 5.7
      vertex 6.36459 0.81 5.6
    endloop
  endfacet
  facet normal -0.939693 -0.34202 0
    outer loop
      vertex 6.86087 -0.553513 5.6
      vertex 6.86087 -0.553513 5.7
      vertex 6.36459 0.81 5.6
    endloop
  endfacet
  facet normal -0.327596 0.900062 0.287348
    outer loop
      vertex 3.71804 8.88052 5.9
      vertex 3.51757 8.80755 5.9
      vertex 4.59421 8.30551 8.7
    endloop
  endfacet
  facet normal -0.327596 0.900062 0.287348
    outer loop
      vertex 7.60123 9.39997 8.7
      vertex 3.71804 8.88052 5.9
      vertex 4.59421 8.30551 8.7
    endloop
  endfacet
  facet normal 0 0 -1
    outer loop
      vertex 6.59 9.19 5.6
      vertex 4.39291 9.19 5.6
      vertex 8.13913 10.5535 5.6
    endloop
  endfacet
  facet normal 0 0 -1
    outer loop
      vertex 8.01 0.81 5.6
      vertex 6.59 9.19 5.6
      vertex 8.01 9.19 5.6
    endloop
  endfacet
  facet normal 0 0 -1
    outer loop
      vertex 8.01 9.19 5.6
      vertex 6.59 9.19 5.6
      vertex 8.13913 10.5535 5.6
    endloop
  endfacet
  facet normal 0 0 -1
    outer loop
      vertex 6.59 0.81 5.6
      vertex 6.59 9.19 5.6
      vertex 8.01 0.81 5.6
    endloop
  endfacet
  facet normal 0 0 -1
    outer loop
      vertex 8.63541 9.19 5.6
      vertex 8.01 9.19 5.6
      vertex 8.13913 10.5535 5.6
    endloop
  endfacet
  facet normal -0 -0 -1
    outer loop
      vertex 6.59 0.81 5.6
      vertex 6.86087 -0.553513 5.6
      vertex 6.36459 0.81 5.6
    endloop
  endfacet
  facet normal -0 0 -1
    outer loop
      vertex 10.6071 0.81 5.6
      vertex 6.86087 -0.553513 5.6
      vertex 8.01 0.81 5.6
    endloop
  endfacet
  facet normal 0 0 -1
    outer loop
      vertex 6.86087 -0.553513 5.6
      vertex 6.59 0.81 5.6
      vertex 8.01 0.81 5.6
    endloop
  endfacet
  facet normal -0 0 -1
    outer loop
      vertex 11.5593 1.15659 5.6
      vertex 11.39 1.09496 5.6
      vertex 11.39 1.62182 5.6
    endloop
  endfacet
  facet normal -0.900062 -0.327596 0.287348
    outer loop
      vertex 4.59421 8.30551 8.7
      vertex 3.51757 8.80755 5.9
      vertex 6.39568 0.9 5.9
    endloop
  endfacet
  facet normal -0.900062 -0.327596 0.287348
    outer loop
      vertex 6.86087 -0.553513 5.7
      vertex 4.59421 8.30551 8.7
      vertex 6.39568 0.9 5.9
    endloop
  endfacet
  facet normal -0.900062 -0.327596 0.287348
    outer loop
      vertex 6.35367 0.84 5.7
      vertex 6.86087 -0.553513 5.7
      vertex 6.39568 0.9 5.9
    endloop
  endfacet
  facet normal 0.34202 -0.939693 0
    outer loop
      vertex 6.86087 -0.553513 5.7
      vertex 6.86087 -0.553513 5.6
      vertex 10.6071 0.81 5.6
    endloop
  endfacet
  facet normal 0.34202 -0.939693 -4.29172e-015
    outer loop
      vertex 10.6895 0.84 5.7
      vertex 6.86087 -0.553513 5.7
      vertex 10.6071 0.81 5.6
    endloop
  endfacet
  facet normal 0.34202 -0.939693 -1.39023e-015
    outer loop
      vertex 11.5593 1.15659 5.7
      vertex 11.36 1.08404 5.7
      vertex 11.39 1.09496 5.6
    endloop
  endfacet
  facet normal 0.34202 -0.939693 0
    outer loop
      vertex 11.5593 1.15659 5.6
      vertex 11.5593 1.15659 5.7
      vertex 11.39 1.09496 5.6
    endloop
  endfacet
  facet normal 0.939693 0.34202 0
    outer loop
      vertex 8.63541 9.19 5.6
      vertex 8.13913 10.5535 5.6
      vertex 8.13913 10.5535 5.7
    endloop
  endfacet
  facet normal 0.939693 0.34202 4.77271e-015
    outer loop
      vertex 8.64633 9.16 5.7
      vertex 8.63541 9.19 5.6
      vertex 8.13913 10.5535 5.7
    endloop
  endfacet
  facet normal 0.939693 0.34202 -7.76864e-015
    outer loop
      vertex 11.39 1.62182 5.6
      vertex 11.36 1.70425 5.7
      vertex 11.5593 1.15659 5.7
    endloop
  endfacet
  facet normal 0.939693 0.34202 -0
    outer loop
      vertex 11.5593 1.15659 5.6
      vertex 11.39 1.62182 5.6
      vertex 11.5593 1.15659 5.7
    endloop
  endfacet
  facet normal -0.900062 -0.327596 0.287348
    outer loop
      vertex 7.39877 0.600028 8.7
      vertex 4.59421 8.30551 8.7
      vertex 6.86087 -0.553513 5.7
    endloop
  endfacet
  facet normal 0.900062 0.327596 0.287348
    outer loop
      vertex 8.13913 10.5535 5.7
      vertex 7.60123 9.39997 8.7
      vertex 10.4058 1.69449 8.7
    endloop
  endfacet
  facet normal -0.327596 0.900062 0.287348
    outer loop
      vertex 4.32106 9.1 5.9
      vertex 3.71804 8.88052 5.9
      vertex 7.60123 9.39997 8.7
    endloop
  endfacet
  facet normal -0.327596 0.900062 0.287348
    outer loop
      vertex 4.31048 9.16 5.7
      vertex 4.32106 9.1 5.9
      vertex 8.13913 10.5535 5.7
    endloop
  endfacet
  facet normal -0.327596 0.900062 0.287348
    outer loop
      vertex 8.13913 10.5535 5.7
      vertex 4.32106 9.1 5.9
      vertex 7.60123 9.39997 8.7
    endloop
  endfacet
  facet normal 0 0 1
    outer loop
      vertex 10.4058 1.69449 8.7
      vertex 4.59421 8.30551 8.7
      vertex 7.39877 0.600028 8.7
    endloop
  endfacet
  facet normal 0 0 1
    outer loop
      vertex 10.4058 1.69449 8.7
      vertex 7.60123 9.39997 8.7
      vertex 4.59421 8.30551 8.7
    endloop
  endfacet
  facet normal 0.327596 -0.900062 0.287348
    outer loop
      vertex 10.6789 0.9 5.9
      vertex 6.86087 -0.553513 5.7
      vertex 10.6895 0.84 5.7
    endloop
  endfacet
  facet normal 0.327596 -0.900062 0.287348
    outer loop
      vertex 11.282 1.11948 5.9
      vertex 7.39877 0.600028 8.7
      vertex 10.6789 0.9 5.9
    endloop
  endfacet
  facet normal 0.327596 -0.900062 0.287348
    outer loop
      vertex 10.6789 0.9 5.9
      vertex 7.39877 0.600028 8.7
      vertex 6.86087 -0.553513 5.7
    endloop
  endfacet
  facet normal 0.327596 -0.900062 0.287348
    outer loop
      vertex 11.5593 1.15659 5.7
      vertex 11.305 1.12256 5.8834
      vertex 11.36 1.08404 5.7
    endloop
  endfacet
  facet normal 0.327596 -0.900062 0.287348
    outer loop
      vertex 10.4058 1.69449 8.7
      vertex 7.39877 0.600028 8.7
      vertex 11.282 1.11948 5.9
    endloop
  endfacet
  facet normal 0.327596 -0.900062 0.287348
    outer loop
      vertex 11.5593 1.15659 5.7
      vertex 10.4058 1.69449 8.7
      vertex 11.3 1.12605 5.9
    endloop
  endfacet
  facet normal 0.327596 -0.900062 0.287348
    outer loop
      vertex 11.3 1.12605 5.9
      vertex 10.4058 1.69449 8.7
      vertex 11.282 1.11948 5.9
    endloop
  endfacet
  facet normal 0.327596 -0.900062 0.287348
    outer loop
      vertex 11.5593 1.15659 5.7
      vertex 11.3 1.12605 5.9
      vertex 11.305 1.12256 5.8834
    endloop
  endfacet
  facet normal 0.900062 0.327596 0.287348
    outer loop
      vertex 8.60432 9.1 5.9
      vertex 8.13913 10.5535 5.7
      vertex 10.4058 1.69449 8.7
    endloop
  endfacet
  facet normal 0.900062 0.327596 0.287348
    outer loop
      vertex 11.5593 1.15659 5.7
      vertex 11.3 1.69367 5.9
      vertex 10.4058 1.69449 8.7
    endloop
  endfacet
  facet normal 0.900062 0.327596 0.287348
    outer loop
      vertex 11.5593 1.15659 5.7
      vertex 11.36 1.70425 5.7
      vertex 11.3 1.69367 5.9
    endloop
  endfacet
  facet normal 0.900062 0.327596 0.287348
    outer loop
      vertex 11.3 1.69367 5.9
      vertex 8.60432 9.1 5.9
      vertex 10.4058 1.69449 8.7
    endloop
  endfacet
  facet normal 0.900062 0.327596 0.287348
    outer loop
      vertex 8.64633 9.16 5.7
      vertex 8.13913 10.5535 5.7
      vertex 8.60432 9.1 5.9
    endloop
  endfacet
endsolid OpenSCAD_Model
